HIERARCHY
ROOT joint_Root
{
	OFFSET 0.0 0.0 0.0
	CHANNELS 6 Xposition Yposition Zposition Zrotation Xrotation Yrotation 
	JOINT Hips
	{
		OFFSET -17.1583 93.1646 452.98
		CHANNELS 6 Xposition Yposition Zposition Zrotation Xrotation Yrotation 
		JOINT Spine
		{
			OFFSET 15.7357 0.0 0.0
			CHANNELS 6 Xposition Yposition Zposition Zrotation Xrotation Yrotation 
			JOINT Chest
			{
				OFFSET 8.98455 -0.406207 0.0
				CHANNELS 6 Xposition Yposition Zposition Zrotation Xrotation Yrotation 
				JOINT Neck
				{
					OFFSET 16.3773 0.0 0.0
					CHANNELS 6 Xposition Yposition Zposition Zrotation Xrotation Yrotation 
					JOINT Head
					{
						OFFSET 6.45672 0.0 0.0
						CHANNELS 6 Xposition Yposition Zposition Zrotation Xrotation Yrotation 
						End Site
						{
							OFFSET 0.0 0.0 0.0
						}
					}
				}
				JOINT Shoulder_L
				{
					OFFSET 12.9942 -0.242716 4.98039
					CHANNELS 6 Xposition Yposition Zposition Zrotation Xrotation Yrotation 
					JOINT UpperArm_L
					{
						OFFSET 5.34809 0.0 0.0
						CHANNELS 6 Xposition Yposition Zposition Zrotation Xrotation Yrotation 
						JOINT LowerArm_L
						{
							OFFSET 24.3286 1.87007e-05 0.0
							CHANNELS 6 Xposition Yposition Zposition Zrotation Xrotation Yrotation 
							JOINT Hand_L
							{
								OFFSET 22.2916 0.0 0.0
								CHANNELS 6 Xposition Yposition Zposition Zrotation Xrotation Yrotation 
								End Site
								{
									OFFSET 0.0 0.0 0.0
								}
							}
						}
					}
				}
				JOINT Shoulder_R
				{
					OFFSET 12.9945 -0.242716 -4.98039
					CHANNELS 6 Xposition Yposition Zposition Zrotation Xrotation Yrotation 
					JOINT UpperArm_R
					{
						OFFSET -5.34813 0.0 0.0
						CHANNELS 6 Xposition Yposition Zposition Zrotation Xrotation Yrotation 
						JOINT LowerArm_R
						{
							OFFSET -24.3289 0.000322201 0.0
							CHANNELS 6 Xposition Yposition Zposition Zrotation Xrotation Yrotation 
							JOINT Hand_R
							{
								OFFSET -22.2915 -0.000108084 0.0
								CHANNELS 6 Xposition Yposition Zposition Zrotation Xrotation Yrotation 
								End Site
								{
									OFFSET 0.0 0.0 0.0
								}
							}
						}
					}
				}
			}
		}
		JOINT UpperLeg_L
		{
			OFFSET -2.19248 -6.46944 0.0
			CHANNELS 6 Xposition Yposition Zposition Zrotation Xrotation Yrotation 
			JOINT LowerLeg_L
			{
				OFFSET 39.0811 0.0 -1.23785e-05
				CHANNELS 6 Xposition Yposition Zposition Zrotation Xrotation Yrotation 
				JOINT Foot_L
				{
					OFFSET 40.9854 0.0 -1.26872e-05
					CHANNELS 6 Xposition Yposition Zposition Zrotation Xrotation Yrotation 
					JOINT Toes_L
					{
						OFFSET 11.7543 0.0 0.0
						CHANNELS 6 Xposition Yposition Zposition Zrotation Xrotation Yrotation 
						End Site
						{
							OFFSET 0.0 0.0 0.0
						}
					}
				}
			}
		}
		JOINT UpperLeg_R
		{
			OFFSET -2.19251 6.46944 0.0
			CHANNELS 6 Xposition Yposition Zposition Zrotation Xrotation Yrotation 
			JOINT LowerLeg_R
			{
				OFFSET -39.0811 -0.00228153 -0.0401928
				CHANNELS 6 Xposition Yposition Zposition Zrotation Xrotation Yrotation 
				JOINT Foot_R
				{
					OFFSET -40.9854 0.0 0.0
					CHANNELS 6 Xposition Yposition Zposition Zrotation Xrotation Yrotation 
					JOINT Toes_R
					{
						OFFSET -11.7543 0.0 0.0
						CHANNELS 6 Xposition Yposition Zposition Zrotation Xrotation Yrotation 
						End Site
						{
							OFFSET 0.0 0.0 0.0
						}
					}
				}
			}
		}
	}
}
MOTION
Frames:	4
Frame Time:	0.0333333
0.000000 0.000000 0.000000 0.000000 0.000000 -0.000000 129.926000 88.669700 228.984000 -80.233900 48.611700 179.538000 15.735700 0.000005 -0.000001 68.077500 83.294400 -64.763700 8.984550 -0.406207 -0.000000 4.846500 -5.081960 6.838800 16.377300 -0.000001 -0.000001 12.376700 15.487000 -2.209020 6.456720 -0.000001 -0.000000 -10.224300 22.457400 11.387000 12.994200 -0.242716 4.980390 -93.232000 8.139560 -68.255900 5.348090 -0.000007 -0.000001 -67.966100 8.179890 -13.343800 24.328600 0.000019 0.000005 18.954200 5.266580 -75.038200 22.291600 -0.000001 0.000005 11.896500 5.132830 4.346140 12.994500 -0.242716 -4.980390 86.908300 7.312560 -67.005500 -5.348130 -0.000001 -0.000004 -57.864900 -2.151870 11.880600 -24.328900 0.000322 -0.000009 -0.001003 17.752400 0.000079 -22.291500 -0.000108 -0.000004 7.981420 5.019900 6.897320 -2.192480 -6.469440 -0.000000 -172.293000 8.166450 15.728700 39.081100 -0.000007 -0.000012 0.013497 -0.020615 33.211300 40.985400 -0.000006 -0.000013 6.061880 16.659400 -66.722800 11.754300 -0.000000 0.000003 -0.085746 -0.407732 -33.530400 -2.192510 6.469440 -0.000001 175.967000 -2.046690 162.834000 -39.081100 -0.002282 -0.040193 0.092709 -0.149865 30.820100 -40.985400 0.000008 0.000006 -10.046700 2.144140 -65.486100 -11.754300 -0.000006 -0.000006 -0.001877 0.194839 -8.668690
0.000000 0.000000 0.000000 0.000000 0.000000 -0.000000 134.226000 88.686100 227.521000 -78.612800 46.196800 178.739000 15.735700 0.000005 -0.000001 70.048900 83.237200 -66.190000 8.984550 -0.406207 -0.000000 5.131510 -4.694130 7.923140 16.377300 -0.000001 -0.000001 12.041200 15.318300 -2.223760 6.456720 -0.000001 -0.000000 -9.521590 21.931000 10.775200 12.994200 -0.242716 4.980390 -93.448700 8.619600 -68.095000 5.348090 -0.000007 -0.000001 -70.201100 9.731970 -10.652400 24.328600 0.000019 0.000005 20.800900 8.843960 -67.972700 22.291600 -0.000001 0.000005 9.023070 5.210350 2.447970 12.994500 -0.242716 -4.980390 86.701300 7.927580 -67.319800 -5.348130 -0.000001 -0.000004 -58.558000 0.228836 6.413690 -24.328900 0.000322 -0.000009 -0.001154 13.672100 0.000058 -22.291500 -0.000108 -0.000004 9.897310 5.045520 6.336660 -2.192480 -6.469440 -0.000000 -169.973000 8.133000 10.930600 39.081100 -0.000007 -0.000012 0.047818 -0.050868 43.228100 40.985400 -0.000006 -0.000013 5.465390 14.878500 -56.991100 11.754300 -0.000000 0.000003 -0.098218 -0.440128 -34.937800 -2.192510 6.469440 -0.000001 178.279000 -0.315714 164.935000 -39.081100 -0.002282 -0.040193 0.135834 -0.198668 33.709200 -40.985400 0.000008 0.000006 -9.841560 2.115690 -69.081900 -11.754300 -0.000006 -0.000006 -0.004729 0.226490 -7.380360
0.000000 0.000000 0.000000 0.000000 0.000000 -0.000000 137.819000 88.904800 225.917000 -78.475400 42.498400 179.936000 15.735700 0.000005 -0.000001 71.143800 82.888600 -66.956700 8.984550 -0.406207 -0.000000 5.892800 -4.653100 8.608340 16.377300 -0.000001 -0.000001 12.105400 14.727100 -1.873390 6.456720 -0.000001 -0.000000 -9.317450 21.125300 10.072200 12.994200 -0.242716 4.980390 -93.453300 8.679110 -68.203600 5.348090 -0.000007 -0.000001 -71.773300 13.089700 -9.403410 24.328600 0.000019 0.000005 21.631100 15.102400 -56.705600 22.291600 -0.000001 0.000005 4.670990 5.234650 1.825820 12.994500 -0.242716 -4.980390 86.633000 8.100950 -67.339500 -5.348130 -0.000001 -0.000004 -59.092700 1.711550 0.165075 -24.328900 0.000322 -0.000009 -0.001342 10.333600 0.000041 -22.291500 -0.000108 -0.000004 10.564300 5.079810 5.570970 -2.192480 -6.469440 -0.000000 -169.109000 9.347990 3.880430 39.081100 -0.000007 -0.000012 0.119006 -0.082247 55.349800 40.985400 -0.000006 -0.000013 2.333910 11.254900 -46.081700 11.754300 -0.000000 0.000003 -0.003380 -0.044833 -18.400200 -2.192510 6.469440 -0.000001 179.256000 3.615760 169.012000 -39.081100 -0.002282 -0.040193 0.149104 -0.213918 34.279300 -40.985400 0.000008 0.000006 -9.027990 2.576260 -71.811800 -11.754300 -0.000006 -0.000006 -0.005621 0.235020 -7.032690
0.000000 0.000000 0.000000 0.000000 0.000000 -0.000000 140.740000 89.480800 224.239000 -79.495800 38.560900 -179.491000 15.735700 0.000005 -0.000001 72.460400 83.131900 -68.288100 8.984550 -0.406207 -0.000000 5.510590 -4.211830 8.541120 16.377300 -0.000001 -0.000001 12.001100 13.768700 -0.931655 6.456720 -0.000001 -0.000000 -9.171260 19.734800 10.031300 12.994200 -0.242716 4.980390 -93.471300 9.012590 -68.832400 5.348090 -0.000007 -0.000001 -71.689800 17.032400 -9.482710 24.328600 0.000019 0.000005 21.354700 24.772900 -43.036200 22.291600 -0.000001 0.000005 -2.642830 5.279930 0.597477 12.994500 -0.242716 -4.980390 86.540200 8.219660 -67.077400 -5.348130 -0.000001 -0.000004 -58.899300 3.107200 -5.785980 -24.328900 0.000322 -0.000009 0.222115 7.351620 -1.749400 -22.291500 -0.000108 -0.000004 9.490820 5.142750 4.112690 -2.192480 -6.469440 -0.000000 -169.112000 8.671580 -4.099910 39.081100 -0.000007 -0.000012 0.194500 -0.091515 64.801000 40.985400 -0.000006 -0.000013 1.673750 2.761780 -44.633300 11.754300 -0.000000 0.000003 0.001360 0.027367 -15.466600 -2.192510 6.469440 -0.000001 178.968000 6.841540 172.647000 -39.081100 -0.002282 -0.040193 0.062703 -0.094460 32.165600 -40.985400 0.000008 0.000006 -10.098500 2.090530 -72.656500 -11.754300 -0.000006 -0.000006 -0.006327 0.241445 -6.770630
